<svg width="589" height="483" viewBox="0 0 589 483" fill="none" xmlns="http://www.w3.org/2000/svg">
<g clip-path="url(#clip0_800_1589)">
<path fill-rule="evenodd" clip-rule="evenodd" d="M116.312 3.89257C120.312 -1.24678 128.176 -1.30685 132.257 3.77076L250.324 150.666C256.623 158.503 248.494 169.529 238.94 166.108L200.284 152.261C200.25 153.084 200.215 153.907 200.181 154.729L200.117 156.234L200.029 158.318C199.285 175.966 198.527 193.96 198.172 212.483C197.409 252.4 198.654 291.001 205.027 324.708C211.481 358.834 222.053 381.631 234.93 395.587C245.785 407.35 263.228 418.405 298.662 419.772C371.094 422.567 406.429 405.664 422.252 391.839C436.925 379.017 444.01 360.912 442.089 337.225C440.067 312.287 427.834 284.891 408.107 264.142C388.732 243.76 366.093 233.623 344.089 233.623V233.256C340.542 232.196 337.961 228.96 337.961 225.131V98.4741C337.961 94.6461 340.542 91.4096 344.089 90.3504V89.9838C344.79 89.9838 345.49 89.9867 346.189 89.9937C346.328 89.9867 346.47 89.9831 346.612 89.9831C346.824 89.9831 347.034 89.9909 347.242 90.0058C416.143 90.9667 474.408 123.334 515.112 166.15C556.083 209.249 583.183 266.714 587.976 325.829C592.872 386.195 574.257 451.333 519.566 499.122C466.022 545.907 388.328 566.982 292.912 563.301C222.91 560.599 166.729 535.655 126.454 492.007C88.2008 450.55 70.1381 398.52 61.1365 350.921C52.0558 302.902 51.0249 252.878 51.8494 209.787C52.236 189.574 53.0598 170.056 53.7936 152.67L53.7937 152.667L53.7939 152.663L53.8628 151.029L13.7065 165.883C4.2148 169.394 -4.03115 158.511 2.12641 150.599L116.312 3.89257Z" fill="#F6B00E"/>
</g>
<defs>
<clipPath id="clip0_800_1589">
<rect width="589" height="483" fill="white"/>
</clipPath>
</defs>
</svg>
